<svg width="25" height="25" viewBox="0 0 25 25" fill="none" xmlns="http://www.w3.org/2000/svg">
<mask id="mask0_9_43" style="mask-type:alpha" maskUnits="userSpaceOnUse" x="0" y="0" width="25" height="25">
<rect x="0.840088" y="0.227448" width="24" height="24" fill="#D9D9D9"/>
</mask>
<g mask="url(#mask0_9_43)">
<path d="M12.8651 16.2274C12.4651 16.2274 12.1278 16.0858 11.8531 15.8024C11.5778 15.5191 11.4568 15.1858 11.4901 14.8024C11.5401 14.1024 11.7068 13.4941 11.9901 12.9774C12.2734 12.4608 12.7234 11.9274 13.3401 11.3774C14.0234 10.7774 14.5441 10.2564 14.9021 9.81445C15.2608 9.37311 15.4401 8.86911 15.4401 8.30245C15.4401 7.61911 15.2111 7.05245 14.7531 6.60245C14.2944 6.15245 13.6568 5.92745 12.8401 5.92745C12.3068 5.92745 11.8528 6.03978 11.4781 6.26445C11.1028 6.48978 10.7984 6.76911 10.5651 7.10245C10.3318 7.43578 10.0444 7.66078 9.70308 7.77745C9.36108 7.89411 9.03175 7.88578 8.71508 7.75245C8.33175 7.58578 8.06942 7.31078 7.92808 6.92745C7.78608 6.54411 7.81508 6.18578 8.01508 5.85245C8.49842 5.10245 9.14842 4.47745 9.96508 3.97745C10.7818 3.47745 11.7401 3.22745 12.8401 3.22745C14.5901 3.22745 15.9361 3.71511 16.8781 4.69045C17.8194 5.66511 18.2901 6.83578 18.2901 8.20245C18.2901 9.03578 18.1111 9.74845 17.7531 10.3404C17.3944 10.9318 16.8318 11.6024 16.0651 12.3524C15.4984 12.8858 15.0984 13.3191 14.8651 13.6524C14.6318 13.9858 14.4734 14.3691 14.3901 14.8024C14.3234 15.2191 14.1484 15.5608 13.8651 15.8274C13.5818 16.0941 13.2484 16.2274 12.8651 16.2274ZM12.8401 22.2274C12.2901 22.2274 11.8194 22.0318 11.4281 21.6404C11.0361 21.2484 10.8401 20.7774 10.8401 20.2274C10.8401 19.6774 11.0361 19.2064 11.4281 18.8144C11.8194 18.4231 12.2901 18.2274 12.8401 18.2274C13.3901 18.2274 13.8611 18.4231 14.2531 18.8144C14.6444 19.2064 14.8401 19.6774 14.8401 20.2274C14.8401 20.7774 14.6444 21.2484 14.2531 21.6404C13.8611 22.0318 13.3901 22.2274 12.8401 22.2274Z" fill="white"/>
</g>
</svg>
